# xmcd
#
# Track frame offsets: 
#        182
#        12002
#        24852
#        36205
#        47095
#        58307
#        71382
#        81440
#        93822
#        106215
#        118842
#        132300
#        143215
#        152815
#        167237
#        179870
#        192392
#        203915
#        216040
#        228817
#        243355
#        256827
#        269265
#        281335
#        295102
#        306532
#        318380
#        330545
#
# Disc length: 4586 seconds
#
# Revision: 7
# Processed by: cddbd v1.5.2PL0 Copyright (c) Steve Scherf et al.
# Submitted via: ExactAudioCopyFreeDBPlugin 1.0
#
DISCID=9911e81c
DTITLE=Various Artist - Hitsville USA:  The Motown Singles Collection
DTITLE=s, 1959 - 1992 [box sets]
DYEAR=1992
DGENRE=Rhythm and Blues
TTITLE0=Barrett Strong - Money (That's What I Want)
TTITLE1=Smokey Robinson and The Miracles - Shop Around
TTITLE2=The Marvelettes - Please Mr. Postman
TTITLE3=Eddie Holland - Jamie
TTITLE4=Mary Wells - The One Who Really Loves You
TTITLE5=The Contours - Do You Love Me
TTITLE6=The Marvelettes - Beechwood 4-5789
TTITLE7=Mary Wells - You Beat Me to the Punch
TTITLE8=Marvin Gaye - Stubborn Kind of Fellow
TTITLE9=Mary Wells - Two Lovers
TTITLE10=Smokey Robinson and The Miracles - You've Really Got a Hold on 
TTITLE10=Me
TTITLE11=Martha Reeves and The Vandellas - Come and Get These Memories
TTITLE12=Marvin Gaye - Pride and Joy
TTITLE13=Stevie Wonder - Fingertips, Part 2
TTITLE14=Martha Reeves and The Vandellas - (Love is Like A) Heat Wave
TTITLE15=Smokey Robinson and The Miracles - Mickey's Monkey
TTITLE16=Eddie Holland - Leaving Here
TTITLE17=The Temptations - The Way You Do the Things You Do
TTITLE18=Mary Wells - My Guy
TTITLE19=Shorty Long - Devil with the Blue Dress
TTITLE20=Brenda Holloway - Every Little Bit Hurts
TTITLE21=The Four Tops - Baby I Need Your Loving
TTITLE22=Martha Reeves and The Vandellas - Dancing in the Street
TTITLE23=Carolyn Crawford - My Smile is Just a Frown (Turned Upside Do
TTITLE23=wn)
TTITLE24=The Velvelettes - Needle in a Haystack
TTITLE25=The Supremes - Baby Love
TTITLE26=The Supremes - Come See About Me
TTITLE27=Marvin Gaye - How Sweet it Is (To Be Loved By You)
EXTD=
EXTT0=
EXTT1=
EXTT2=
EXTT3=
EXTT4=
EXTT5=
EXTT6=
EXTT7=
EXTT8=
EXTT9=
EXTT10=
EXTT11=
EXTT12=
EXTT13=
EXTT14=
EXTT15=
EXTT16=
EXTT17=
EXTT18=
EXTT19=
EXTT20=
EXTT21=
EXTT22=
EXTT23=
EXTT24=
EXTT25=
EXTT26=
EXTT27=
PLAYORDER=
